<svg width="968" height="112" viewBox="0 0 968 112" fill="none" xmlns="http://www.w3.org/2000/svg">
<path d="M192.9 0.599976H161.3C156.3 0.599976 151.9 3.79998 150.3 8.59998L140.3 39.6C137.2 49.1 131.3 55.5 116.7 55.5H96.2L111 9.59998C112.4 5.09998 109.1 0.599976 104.4 0.599976H72.8C67.8 0.599976 63.4 3.79998 61.8 8.59998L51.8 39.6C48.7 49.1 42.8 55.5 28.2 55.5H0.199997L58.1 107.8C65.8 114.7 78 111.4 81.2 101.6L94.4 60.7L146.6 107.8C154.3 114.7 166.5 111.4 169.7 101.6L184.6 55.5L199.4 9.69998C200.9 5.19998 197.5 0.599976 192.9 0.599976Z" fill="#033839"/>
<path d="M349.4 40.4C330.2 40.4 319.8 52.9 319.8 71.7C319.8 90.5 330.1 103 349.4 103C368.6 103 379 90.5 379 71.7C379 52.9 368.7 40.4 349.4 40.4ZM349.4 94.4C337.6 94.4 332 85.5 332 71.7C332 57.9 337.6 49 349.4 49C361.2 49 366.8 57.9 366.8 71.7C366.8 85.5 361.2 94.4 349.4 94.4ZM507.9 40.4C488.7 40.4 478.3 52.9 478.3 71.7C478.3 90.5 488.6 103 507.9 103C527.1 103 537.5 90.5 537.5 71.7C537.5 52.9 527.1 40.4 507.9 40.4ZM507.9 94.4C496.1 94.4 490.5 85.5 490.5 71.7C490.5 57.9 496.1 49 507.9 49C519.7 49 525.3 57.9 525.3 71.7C525.3 85.5 519.7 94.4 507.9 94.4ZM739.1 40.3C719 40.3 708.3 54.5 708.3 71.7C708.3 88.7 719.1 103 740.1 103C758 103 765.8 92.8 768.5 83.3H753.3C752 87.8 748.6 92.4 739.7 92.4C729.4 92.4 723.8 84.6 723.7 75.4H769.3V72.2C769.1 53.8 759 40.3 739.1 40.3ZM723.6 64.7C724.5 57.2 729.7 50.9 739.1 50.9C748.8 50.9 753.5 57.7 753.9 64.7H723.6ZM299 55.4H259.9V21.9H247.7V102.1H259.9V65.2H299V102.1H311.2V21.9H299V55.4ZM943.7 40.3C935.4 40.3 929.6 43.2 925.7 48.3V21.9H909.9V102.1H925.7V66.8C925.7 57.2 930.3 51.2 939.1 51.2C947.5 51.2 951.9 56.3 951.9 65.6V102.1H967.7V65C967.7 49.4 958.6 40.3 943.7 40.3ZM891.2 21.9H875.4V41.3H862.6V54H875.4V102H891.2V54H904V41.2H891.2V21.9ZM840.9 102.1H856.7V21.9H840.9V102.1ZM830.1 91.3V60.7C830.1 47.2 820.7 40.3 803.8 40.3C784.9 40.3 776.7 49.7 775.3 60.1H790.5C791.1 54.9 795.5 50.9 803 50.9C809.9 50.9 814.8 53.6 814.8 60.3C814.8 63.3 813 64.3 809.2 64.9L794.1 67C781 68.8 772.9 73.7 772.9 84.8C772.9 95.9 782.8 102.9 796.5 102.9C806.5 102.9 812.1 99.2 815.1 95.1V95.7C815.2 97.8 815.4 99.9 815.8 102H831.1V101C830.3 97.9 830 94.6 830.1 91.3ZM814.9 79.6C814.9 87.3 810.2 92.9 801.1 92.9C794.3 92.9 788.7 90 788.7 84.1C788.7 79.1 792.8 77.5 798.8 76.4L808.9 74.3C812.1 73.7 814.1 72.8 814.9 71.7V79.6ZM696.2 21.9L682.3 85.6L667.7 21.9H667.6H647.6H647.5L633 85.6L619.1 21.9H602.1L623.7 102.1H643.2L657.7 40.1L672.2 102.1H691.7L713.3 21.9H696.2ZM576.6 40.4C567.6 40.4 561.4 43.9 557.6 50.1V41.2H545.4V102H557.6V67C557.6 55.9 562.8 48.7 573.2 48.7C582.9 48.7 587.9 54.8 587.9 65.5V102H600.1V65C600.1 49.4 591.5 40.4 576.6 40.4ZM464.6 21.9H452.4V41.3H439.2V50.5H452.4V102.1H464.6V50.5H477.8V41.3H464.6V21.9ZM424.1 41.2L407.8 64L391.5 41.2H378.7L400.5 70.4L378.7 102H391.5L407.8 77.3L424.1 102H436.8L415.1 70.4L436.8 41.2H424.1Z" fill="#033839"/>
</svg>
